<svg width="129" height="96" fill="none" xmlns="http://www.w3.org/2000/svg"><path d="M27.967 6.583c1.89-5.19 7.628-7.866 12.818-5.977 5.19 1.889 7.865 7.627 5.976 12.817L19.4 88.598c-1.89 5.19-7.628 7.866-12.817 5.977-5.19-1.889-7.866-7.627-5.977-12.817L27.967 6.583z" fill="url(#prefix__paint0_linear)"/><path d="M29.697 13.621c-1.889-5.19.787-10.928 5.977-12.817 5.19-1.89 10.928.787 12.817 5.977l27.362 75.175c1.889 5.19-.787 10.928-5.977 12.817-5.19 1.889-10.928-.787-12.817-5.977L29.697 13.621z" fill="url(#prefix__paint1_linear)"/><path d="M57.277 85.224c0-5.523 4.477-10 10-10h30c5.523 0 10 4.477 10 10s-4.477 10-10 10h-30c-5.523 0-10-4.477-10-10z" fill="url(#prefix__paint2_linear)"/><path d="M77.277 9.974c0-5.385 4.365-9.75 9.75-9.75h27.5c5.385 0 9.75 4.365 9.75 9.75s-4.365 9.75-9.75 9.75h-27.5c-5.385 0-9.75-4.365-9.75-9.75z" fill="url(#prefix__paint3_linear)"/><path d="M85.277 37.924a6 6 0 016-6h7.9a6 6 0 016 6v7.9a6 6 0 01-6 6h-7.9a6 6 0 01-6-6v-7.9z" fill="url(#prefix__paint4_linear)"/><path d="M22.277 60.224h30v15h-30v-15z" fill="url(#prefix__paint5_linear)"/><path d="M87.03 92.4a20 20 0 0030.246-17.425l-19.999.249L87.03 92.4z" fill="url(#prefix__paint6_linear)"/><path d="M95.524 95.232a31.669 31.669 0 0023.954-53.894 31.662 31.662 0 00-22.746-9.413l.134 19.793a11.873 11.873 0 0111.11 7.47 11.884 11.884 0 01-.176 9.23 11.884 11.884 0 01-6.734 6.315c-1.487.55-3.069.796-4.653.725l-.889 19.774z" fill="url(#prefix__paint7_linear)"/><path d="M84.584.665a26.1 26.1 0 009.194 51.126l-1.571-19.773A6.264 6.264 0 0190 19.747L84.584.664z" fill="url(#prefix__paint8_linear)"/><defs><linearGradient id="prefix__paint0_linear" x1=".277" y1="47.224" x2="128.277" y2="47.224" gradientUnits="userSpaceOnUse"><stop stop-color="#BC78FF"/><stop offset=".52" stop-color="#E0C1FF" stop-opacity=".953"/><stop offset="1" stop-color="#DD7BFF"/></linearGradient><linearGradient id="prefix__paint1_linear" x1=".277" y1="47.224" x2="128.277" y2="47.224" gradientUnits="userSpaceOnUse"><stop stop-color="#BC78FF"/><stop offset=".52" stop-color="#E0C1FF" stop-opacity=".953"/><stop offset="1" stop-color="#DD7BFF"/></linearGradient><linearGradient id="prefix__paint2_linear" x1=".277" y1="47.224" x2="128.277" y2="47.224" gradientUnits="userSpaceOnUse"><stop stop-color="#BC78FF"/><stop offset=".52" stop-color="#E0C1FF" stop-opacity=".953"/><stop offset="1" stop-color="#DD7BFF"/></linearGradient><linearGradient id="prefix__paint3_linear" x1=".277" y1="47.224" x2="128.277" y2="47.224" gradientUnits="userSpaceOnUse"><stop stop-color="#BC78FF"/><stop offset=".52" stop-color="#E0C1FF" stop-opacity=".953"/><stop offset="1" stop-color="#DD7BFF"/></linearGradient><linearGradient id="prefix__paint4_linear" x1=".277" y1="47.224" x2="128.277" y2="47.224" gradientUnits="userSpaceOnUse"><stop stop-color="#BC78FF"/><stop offset=".52" stop-color="#E0C1FF" stop-opacity=".953"/><stop offset="1" stop-color="#DD7BFF"/></linearGradient><linearGradient id="prefix__paint5_linear" x1=".277" y1="47.224" x2="128.277" y2="47.224" gradientUnits="userSpaceOnUse"><stop stop-color="#BC78FF"/><stop offset=".52" stop-color="#E0C1FF" stop-opacity=".953"/><stop offset="1" stop-color="#DD7BFF"/></linearGradient><linearGradient id="prefix__paint6_linear" x1=".277" y1="47.224" x2="128.277" y2="47.224" gradientUnits="userSpaceOnUse"><stop stop-color="#BC78FF"/><stop offset=".52" stop-color="#E0C1FF" stop-opacity=".953"/><stop offset="1" stop-color="#DD7BFF"/></linearGradient><linearGradient id="prefix__paint7_linear" x1=".277" y1="47.224" x2="128.277" y2="47.224" gradientUnits="userSpaceOnUse"><stop stop-color="#BC78FF"/><stop offset=".52" stop-color="#E0C1FF" stop-opacity=".953"/><stop offset="1" stop-color="#DD7BFF"/></linearGradient><linearGradient id="prefix__paint8_linear" x1=".277" y1="47.224" x2="128.277" y2="47.224" gradientUnits="userSpaceOnUse"><stop stop-color="#BC78FF"/><stop offset=".52" stop-color="#E0C1FF" stop-opacity=".953"/><stop offset="1" stop-color="#DD7BFF"/></linearGradient></defs></svg>