<?xml version="1.0" encoding="UTF-8" standalone="no"?>
<!-- Created with Inkscape (http://www.inkscape.org/) -->

<svg
   width="512"
   height="512"
   viewBox="0 0 135.46667 135.46667"
   version="1.1"
   id="svg1"
   inkscape:version="1.3.2 (091e20e, 2023-11-25)"
   sodipodi:docname="favicon.svg"
   xmlns:inkscape="http://www.inkscape.org/namespaces/inkscape"
   xmlns:sodipodi="http://sodipodi.sourceforge.net/DTD/sodipodi-0.dtd"
   xmlns="http://www.w3.org/2000/svg"
   xmlns:svg="http://www.w3.org/2000/svg">
  <sodipodi:namedview
     id="namedview1"
     pagecolor="#ffffff"
     bordercolor="#000000"
     borderopacity="0.25"
     inkscape:showpageshadow="2"
     inkscape:pageopacity="0.0"
     inkscape:pagecheckerboard="0"
     inkscape:deskcolor="#d1d1d1"
     inkscape:document-units="mm"
     showguides="true"
     inkscape:zoom="0.79493981"
     inkscape:cx="313.23126"
     inkscape:cy="344.05121"
     inkscape:window-width="1672"
     inkscape:window-height="794"
     inkscape:window-x="0"
     inkscape:window-y="25"
     inkscape:window-maximized="0"
     inkscape:current-layer="layer1" />
  <defs
     id="defs1" />
  <g
     inkscape:groupmode="layer"
     id="layer2"
     inkscape:label="Layer 2">
    <rect
       style="font-variation-settings:'wght' 500;fill:#ffffff;stroke-width:0.499999;stroke-linecap:round;stroke-linejoin:round;fill-opacity:1"
       id="rect1"
       width="135.46666"
       height="135.46666"
       x="0"
       y="0"
       rx="16.933332"
       ry="16.933332" />
  </g>
  <g
     inkscape:label="Layer 1"
     inkscape:groupmode="layer"
     id="layer1"
     transform="matrix(1.0858194,0,0,1.0858194,-5.6658154,-5.283893)">
    <path
       d="m 87.285962,80.873374 c 1.43598,5.039805 2.87166,10.076635 4.30839,15.115225 -0.49361,2.53069 -1.43718,4.799791 -2.84651,6.796341 -0.55766,0.8001 -1.18432,1.54266 -1.85907,2.24522 -0.4555,0.47429 -0.93652,0.92724 -1.44532,1.35706 0.97005,3.48016 1.93568,6.97097 2.9072,10.44827 0.016,0.0587 0.0331,0.11775 0.0502,0.17657 1.96561,8.35605 12.145298,2.90449 9.97384,-3.60228 -0.41643,-1.45704 -0.83052,-2.9172 -1.24672,-4.37459 -1.72155,-6.02808 -3.43878,-12.062161 -5.15794,-18.094151 -0.43255,-1.51759 -0.86949,-3.0334 -1.30189,-4.55112 l -1.52808,-3.232661 c -0.54977,-0.785901 -1.179,-1.542851 -1.85355,-2.28384 z"
       style="display:inline;fill:#9e00d4;fill-opacity:1;stroke-width:10.6751;stroke-linecap:square;paint-order:stroke fill markers"
       id="path166" />
    <path
       d="m 76.280532,73.426088 c 3.05226,10.992689 6.10301,21.982971 9.16292,32.961132 0.50888,-0.42978 1.33769,-0.39476 1.79322,-0.86895 0.67477,-0.70253 1.56454,-1.1116 2.12221,-1.91174 1.40934,-1.99656 2.21681,-4.824901 2.71049,-7.355601 -0.63315,-5.13707 -2.05119,-10.74141 -4.78341,-15.377533 -0.75409,-0.828389 -1.55357,-1.637837 -2.36658,-2.432779 -1.70796,-1.670021 -3.92346,-3.074311 -6.59774,-4.225641 -0.65054,-0.280113 -1.33247,-0.540798 -2.04111,-0.788888 z"
       style="display:inline;fill:#9e00d4;fill-opacity:1;stroke-width:10.6752;stroke-linecap:square;stroke-dasharray:none;paint-order:stroke fill markers"
       id="path167"
       sodipodi:nodetypes="sccccccccs" />
    <path
       d="m 67.327242,13.43959 c -1.00485,0 -1.98671,0.03736 -2.95685,0.0886 -3.230475,1.243915 -3.535912,5.422584 -4.545602,8.473355 -0.212863,0.747897 -0.427007,1.497214 -0.639866,2.245217 -2.726966,9.579647 -5.465947,19.166683 -8.203053,28.752041 0.471946,0.346938 0.98606,0.682353 1.522556,1.015092 0.628766,0.389854 1.29423,0.767433 2.013525,1.136398 h 0.02243 c 1.225971,0.58286 2.61323,1.117553 4.142898,1.610817 0.536635,0.173042 1.091954,0.345982 1.665987,0.507493 l 5.720615,-20.576572 c 2.1268,7.642022 4.25341,15.284139 6.37708,22.932119 0.65182,0.119774 1.29359,0.247343 1.92526,0.380671 2.69651,0.56909 5.22495,1.254037 7.5521,2.074203 0.69206,0.243928 1.37087,0.500344 2.03008,0.766793 -3.69544,-12.966459 -7.39356,-25.923086 -11.10473,-38.863787 -0.66485,-2.318309 -1.32575,-4.644925 -1.99146,-6.961836 -0.40213,-1.618846 -1.68416,-3.011764 -3.26577,-3.574694 -0.0886,-5.13e-4 -0.1755,-0.0055 -0.26485,-0.0055 z"
       style="display:inline;fill:#9e00d4;fill-opacity:1;stroke-width:10.6751;stroke-linecap:square;paint-order:stroke fill markers"
       id="path168" />
    <path
       d="m 47.401617,65.55404 c -2.949861,10.331836 -5.880355,20.651689 -8.815375,30.975179 -1.186633,4.173801 -2.381688,8.351311 -3.563667,12.522471 -0.553397,1.95303 -1.113786,3.91171 -1.665987,5.86405 -1.124952,7.41255 7.927869,7.59792 10.525492,1.31844 0.107605,-0.26015 0.219161,-0.51197 0.303388,-0.79433 l 2.614821,-9.40012 10.194498,-36.684783 C 56.43285,69.198024 55.857913,69.052522 55.312256,68.880546 53.062607,68.171188 50.944433,67.342854 48.97379,66.376054 48.438753,66.113551 47.915889,65.835681 47.401584,65.55407 Z"
       style="display:inline;fill:#9e00d4;fill-opacity:1;stroke-width:10.6751;stroke-linecap:square;paint-order:stroke fill markers"
       id="path169" />
    <path
       d="m 33.682061,107.43535 c 1.124205,-3.9668 2.253576,-7.940821 3.381624,-11.910131 -1.124172,-0.55895 -2.291163,-0.68118 -3.49747,-0.33648 -1.626884,0.45187 -2.80202,1.31085 -3.525044,2.5762 -0.632713,1.17496 -0.585102,2.487161 0.137922,3.933271 0.951151,2.03825 2.120522,3.94861 3.502979,5.73717 z"
       style="font-size:12.7px;line-height:1.2;font-family:Comfortaa;-inkscape-font-specification:Comfortaa;font-variant-numeric:tabular-nums;letter-spacing:0px;display:inline;fill:#c082fe;fill-opacity:1;stroke-width:2.82445;stroke-linecap:square;paint-order:stroke fill markers"
       id="path170" />
    <path
       d="m 86.783962,117.674 c -0.0235,-0.0897 -0.0555,-0.17358 -0.0768,-0.26485 -0.91881,-3.28854 -1.82948,-6.58927 -2.74723,-9.88007 -1.17916,0.82039 -2.47206,1.54586 -3.88914,2.168 -3.70567,1.53646 -7.95287,2.30589 -12.74313,2.30589 -4.33835,0 -8.316906,-0.54282 -11.932198,-1.62736 -2.623095,-0.85252 -4.977979,-1.95402 -7.077681,-3.28233 l -2.454846,8.83744 v 0.0224 c -0.119349,0.40021 -0.28193,0.76508 -0.441308,1.13088 1.81564,0.95222 3.734466,1.79372 5.77026,2.51002 4.971041,1.62688 10.351307,2.4383 16.135783,2.4383 4.88065,-1e-5 9.44401,-0.67435 13.69198,-2.03008 2.05434,-0.64201 3.97387,-1.42252 5.76475,-2.32797 z"
       style="font-size:12.7px;line-height:1.2;font-family:Comfortaa;-inkscape-font-specification:Comfortaa;font-variant-numeric:tabular-nums;letter-spacing:0px;display:inline;fill:#c082fe;fill-opacity:1;stroke-width:2.82445;stroke-linecap:square;paint-order:stroke fill markers"
       id="path171" />
    <path
       d="m 61.198406,13.792647 c -4.233263,0.489347 -8.117246,1.491503 -11.634314,3.034075 -5.151299,2.168977 -9.220186,5.289189 -12.202518,9.356004 -2.891958,4.066816 -4.335978,8.857702 -4.335978,14.370501 0,0.599192 0.02455,1.191374 0.06085,1.776315 0.0037,0.05978 0.01026,0.117744 0.01601,0.176567 0.01067,0.171229 0.01815,0.343523 0.03309,0.513044 0.01815,0.203039 0.03843,0.405545 0.06085,0.606773 l 0.02775,-0.03309 c 0.005,0.0459 0.01174,0.09181 0.01708,0.137924 l -0.03309,0.0055 c 0.178914,1.562236 0.500448,3.067455 0.948802,4.523529 0.01708,0.05764 0.03736,0.113582 0.05551,0.171013 0.132158,0.426471 0.273176,0.847282 0.430313,1.263281 0.567382,1.501409 1.288815,2.942023 2.156956,4.32494 0.04484,0.07152 0.09181,0.143472 0.137923,0.215101 0.412699,0.642855 0.856676,1.275194 1.334995,1.892161 0.05231,0.06725 0.107391,0.13216 0.16002,0.198557 1.034309,1.308682 2.209028,2.559985 3.541601,3.75123 1.117263,0.981787 2.323422,1.899215 3.602276,2.741693 0.21948,0.144541 0.448674,0.278834 0.673064,0.419319 0.210407,0.131731 0.419744,0.26901 0.63442,0.39722 0.295169,0.176138 0.618198,0.327085 0.921264,0.496496 v 0.0055 c 0.515393,0.288013 1.028437,0.575813 1.566685,0.84397 1.957407,0.975385 4.061404,1.823745 6.321918,2.537599 0.543256,0.171548 1.116273,0.318013 1.677016,0.474401 0.55884,0.155963 1.106281,0.322494 1.682534,0.463408 2.424696,0.592892 4.995879,1.057685 7.728629,1.384631 1.08457,0.135575 2.13742,0.293675 3.14993,0.474401 1.38087,0.246489 2.6698,0.546565 3.91671,0.877175 0.67104,0.177846 1.33719,0.360496 1.9694,0.562685 0.69719,0.223001 1.369,0.459028 2.01905,0.7116 0.8777,0.341069 1.72384,0.708293 2.51552,1.103303 1.44748,0.722275 2.75124,1.535571 3.9112,2.438297 h 0.006 c 0.57912,0.451129 1.11996,0.927131 1.62737,1.423257 h 0.006 c 0.0651,0.06405 0.11764,0.134186 0.18201,0.198557 0.13365,0.133651 0.26271,0.2672 0.39167,0.402665 0.20774,0.218197 0.41099,0.439278 0.60677,0.661964 0.0149,0.01708 0.0299,0.03309 0.0438,0.05017 0.12084,0.137813 0.24222,0.274242 0.35858,0.413767 0.5741,0.660678 1.13487,1.328238 1.69356,1.996978 1.2993,1.555245 2.48078,3.176831 3.17751,5.086221 0.0619,0.16899 0.12821,0.33392 0.18201,0.5075 h 0.0384 c 1.93528,6.79241 3.87638,13.579161 5.81441,20.366941 0.48721,-0.82561 0.93225,-1.68043 1.33499,-2.57069 1.807608,-3.79604 2.714118,-8.132821 2.714118,-13.013441 0,-1.65712 -0.11017,-3.24948 -0.31993,-4.78281 -0.0256,-0.18404 -0.0651,-0.35837 -0.0939,-0.54059 -0.20753,-1.341571 -0.48379,-2.643825 -0.85508,-3.889141 -0.0288,-0.09607 -0.0587,-0.191297 -0.0886,-0.28684 -0.41622,-1.342232 -0.93044,-2.627268 -1.539098,-3.856047 -0.0427,-0.08647 -0.0886,-0.172936 -0.13237,-0.259296 -0.30136,-0.591079 -0.61895,-1.167761 -0.96535,-1.732185 -0.0406,-0.06512 -0.0865,-0.127888 -0.12693,-0.193112 -0.33925,-0.541439 -0.69996,-1.072097 -1.08124,-1.588751 -0.0427,-0.05871 -0.0833,-0.118495 -0.12692,-0.176567 -0.39818,-0.530017 -0.82038,-1.04648 -1.26328,-1.55014 -0.0833,-0.09501 -0.16888,-0.187564 -0.25375,-0.281396 -0.45508,-0.502798 -0.92831,-0.997056 -1.42877,-1.472907 -0.33894,-0.333278 -0.68631,-0.657692 -1.04819,-0.976452 -0.56909,-0.501407 -1.17247,-0.979758 -1.79838,-1.44532 -0.16984,-0.126396 -0.33904,-0.256951 -0.51305,-0.380675 -0.40651,-0.288973 -0.82849,-0.57496 -1.25776,-0.849525 -0.43063,-0.275309 -0.87044,-0.544535 -1.32397,-0.805436 -0.54635,-0.314165 -1.11398,-0.611573 -1.69357,-0.904713 -0.22503,-0.113798 -0.45401,-0.225885 -0.68406,-0.33648 -0.16119,-0.07793 -0.32174,-0.161192 -0.4855,-0.2372 -0.29709,-0.137921 -0.60507,-0.264423 -0.91026,-0.39722 v -0.0055 c -0.653,-0.284063 -1.35094,-0.5392 -2.0411,-0.799885 -0.61201,-0.231117 -1.21238,-0.476856 -1.85355,-0.689505 -1.79416,-0.595029 -3.73628,-1.093834 -5.75924,-1.544622 -0.64189,-0.143046 -1.27132,-0.296232 -1.9363,-0.42476 -0.6183,-0.119562 -1.27045,-0.21852 -1.9087,-0.325484 -0.62333,-0.104616 -1.22227,-0.221935 -1.86458,-0.314488 -2.71331,-0.387615 -5.17683,-0.864255 -7.425227,-1.417738 -0.576986,-0.142087 -1.14174,-0.288336 -1.688049,-0.441309 -0.425512,-0.119133 -0.86191,-0.23827 -1.2688,-0.364127 -0.138671,-0.0427 -0.266236,-0.0886 -0.402665,-0.132373 v -0.0055 C 57.857643,57.98116 57.406727,57.838432 56.984462,57.687808 55.878781,57.29315 54.848482,56.870097 53.900737,56.419008 53.43904,56.182556 52.989619,55.937243 52.560223,55.69086 52.401805,55.60012 52.25641,55.507356 52.10237,55.415016 v -0.0055 C 51.566908,55.088623 51.056638,54.76474 50.574304,54.427622 v -0.0055 c -0.524895,-0.367011 -1.027477,-0.739145 -1.489463,-1.125368 -0.648407,-0.54219 -1.24082,-1.10829 -1.765278,-1.688053 -0.267303,-0.295701 -0.520728,-0.599302 -0.755796,-0.904717 -0.235812,-0.306587 -0.4586,-0.615952 -0.661961,-0.932253 -0.03096,-0.05017 -0.05231,-0.103549 -0.08327,-0.154472 -0.277764,-0.457852 -0.52735,-0.92414 -0.755796,-1.395672 -0.05231,-0.108778 -0.109954,-0.215954 -0.160019,-0.325484 -0.237094,-0.518489 -0.439601,-1.042955 -0.617876,-1.577725 -0.03096,-0.09181 -0.05978,-0.183716 -0.0886,-0.275843 -0.171869,-0.549233 -0.314381,-1.10516 -0.42476,-1.671494 -0.01389,-0.07366 -0.02561,-0.147209 -0.03843,-0.220656 -0.05444,-0.302425 -0.106752,-0.608481 -0.143475,-0.91571 -0.03628,-0.299863 -0.06832,-0.600261 -0.0886,-0.904712 -0.02349,-0.362739 -0.03843,-0.728578 -0.03843,-1.097784 0,-5.783926 2.171552,-10.16903 6.509482,-13.151353 2.091388,-1.481404 4.517143,-2.592361 7.259726,-3.359558 0.303385,-1.065588 0.607092,-2.134133 0.910264,-3.199571 l 0.02243,-0.03843 v -0.02242 c 0.513363,-1.551059 0.860198,-3.765318 1.814936,-5.819911 0.299863,-0.645309 0.715122,-1.272129 1.219149,-1.848029 z"
       style="-inkscape-font-specification:Comfortaa;display:inline;fill:#c082fe;fill-opacity:1;stroke-width:10.6751;stroke-linecap:square;paint-order:stroke fill markers"
       id="path172" />
    <path
       d="m 70.918482,13.58854 c 0.77619,0.843439 1.35076,1.876457 1.63289,3.012009 0.74502,2.593204 1.47918,5.199945 2.22316,7.794825 0.99993,0.239443 1.96306,0.505146 2.85203,0.838529 2.89224,1.084589 5.33751,2.575857 7.32592,4.473889 2.07879,1.807645 3.79116,3.752156 5.1469,5.830949 0.72302,1.265351 1.76661,2.124333 3.12235,2.57621 1.44611,0.451876 2.84784,0.362419 4.20357,-0.270294 1.26532,-0.723024 2.02924,-1.761091 2.30039,-3.116817 0.361558,-1.355737 0.0929,-2.757473 -0.81088,-4.203585 -1.89806,-3.07305 -4.38535,-5.8765 -7.45837,-8.407202 -2.98261,-2.621087 -6.50794,-4.702677 -10.57514,-6.239165 -3.06449,-1.225799 -6.38523,-1.987147 -9.96282,-2.289348 z"
       style="font-size:12.7px;line-height:1.2;font-family:Comfortaa;-inkscape-font-specification:Comfortaa;font-variant-numeric:tabular-nums;letter-spacing:0px;display:inline;fill:#c082fe;fill-opacity:1;stroke-width:2.82445;stroke-linecap:square;paint-order:stroke fill markers"
       id="path173" />
  </g>
</svg>
