<?xml version="1.0" encoding="UTF-8" standalone="no"?>
<!-- Created with Inkscape (http://www.inkscape.org/) -->

<svg
   width="210mm"
   height="297mm"
   viewBox="0 0 210 297"
   version="1.1"
   id="svg1"
   sodipodi:docname="logo.svg"
   inkscape:version="1.3.2 (091e20ef0f, 2023-11-25)"
   xmlns:inkscape="http://www.inkscape.org/namespaces/inkscape"
   xmlns:sodipodi="http://sodipodi.sourceforge.net/DTD/sodipodi-0.dtd"
   xmlns="http://www.w3.org/2000/svg"
   xmlns:svg="http://www.w3.org/2000/svg">
  <sodipodi:namedview
     id="namedview1"
     pagecolor="#ffffff"
     bordercolor="#000000"
     borderopacity="0.25"
     inkscape:showpageshadow="2"
     inkscape:pageopacity="0.0"
     inkscape:pagecheckerboard="0"
     inkscape:deskcolor="#d1d1d1"
     inkscape:document-units="mm"
     inkscape:zoom="2.6129421"
     inkscape:cx="520.67744"
     inkscape:cy="837.94433"
     inkscape:window-width="2560"
     inkscape:window-height="1371"
     inkscape:window-x="0"
     inkscape:window-y="32"
     inkscape:window-maximized="1"
     inkscape:current-layer="g173" />
  <defs
     id="defs1" />
  <g
     inkscape:label="Layer 1"
     inkscape:groupmode="layer"
     id="layer1">
    <g
       id="g173"
       style="display:inline"
       transform="matrix(29.132794,0,0,29.132794,-2438.1784,-1580.6592)">
      <path
         d="m 89.276721,60.581315 c 0.134517,0.472109 0.269005,0.943939 0.403593,1.415934 -0.04624,0.237065 -0.13463,0.449625 -0.26665,0.636654 -0.05224,0.07495 -0.110942,0.14451 -0.17415,0.210323 -0.04267,0.04443 -0.08773,0.08686 -0.135392,0.127124 0.09087,0.326007 0.181327,0.653013 0.272335,0.978752 0.0015,0.0055 0.0031,0.01103 0.0047,0.01654 0.18413,0.782762 1.137722,0.272081 0.934309,-0.337447 -0.03901,-0.13649 -0.0778,-0.273272 -0.116788,-0.409794 -0.161268,-0.564686 -0.322131,-1.129935 -0.483175,-1.694987 -0.04052,-0.142162 -0.08145,-0.284157 -0.121956,-0.426331 L 89.450403,60.79526 c -0.0515,-0.07362 -0.110444,-0.144528 -0.173633,-0.213941 z"
         style="fill:#9e00d4;stroke-linecap:square;paint-order:stroke fill markers;fill-opacity:1"
         id="path166" />
      <path
         d="m 88.245776,59.883683 c 0.285924,1.029751 0.571706,2.059277 0.858346,3.087667 0.04767,-0.04026 0.125309,-0.03698 0.167981,-0.0814 0.06321,-0.06581 0.14656,-0.10413 0.198801,-0.179084 0.132021,-0.18703 0.207662,-0.451977 0.253907,-0.689043 -0.05931,-0.48122 -0.192147,-1.006213 -0.44809,-1.440506 -0.07064,-0.0776 -0.145532,-0.153426 -0.221692,-0.227893 -0.159995,-0.156441 -0.367534,-0.287989 -0.61805,-0.395841 -0.06094,-0.02624 -0.12482,-0.05066 -0.191203,-0.0739 z"
         style="fill:#9e00d4;fill-opacity:1;stroke-width:1.00001;stroke-linecap:square;stroke-dasharray:none;paint-order:stroke fill markers"
         id="path167"
         sodipodi:nodetypes="sccccccccs" />
      <path
         d="m 87.407068,54.264388 c -0.09413,0 -0.186107,0.0035 -0.276986,0.0083 -0.302618,0.116525 -0.33123,0.507966 -0.425814,0.79375 -0.01994,0.07006 -0.04,0.140253 -0.05994,0.210323 -0.255451,0.897383 -0.512028,1.795458 -0.768429,2.693376 0.04421,0.0325 0.09237,0.06392 0.142627,0.09509 0.0589,0.03652 0.121238,0.07189 0.188619,0.106453 h 0.0021 c 0.114844,0.0546 0.244797,0.104688 0.38809,0.150895 0.05027,0.01621 0.10229,0.03241 0.156063,0.04754 l 0.535885,-1.927531 c 0.19923,0.715874 0.398442,1.431757 0.597379,2.148189 0.06106,0.01122 0.121178,0.02317 0.180351,0.03566 0.252598,0.05331 0.489452,0.117473 0.70745,0.194303 0.06483,0.02285 0.128418,0.04687 0.19017,0.07183 -0.346174,-1.214646 -0.692599,-2.428371 -1.040247,-3.640604 -0.06228,-0.21717 -0.124191,-0.435118 -0.186552,-0.652157 -0.03767,-0.151647 -0.157765,-0.28213 -0.305924,-0.334863 -0.0083,-4.9e-5 -0.01644,-5.17e-4 -0.02481,-5.17e-4 z"
         style="fill:#9e00d4;stroke-linecap:square;paint-order:stroke fill markers;fill-opacity:1"
         id="path168" />
      <path
         d="m 85.540515,59.146261 c -0.276331,0.967845 -0.550848,1.934568 -0.825789,2.901631 -0.111159,0.390985 -0.223107,0.782317 -0.33383,1.173055 -0.05184,0.182952 -0.104335,0.366433 -0.156063,0.549321 -0.105381,0.694377 0.742651,0.711742 0.985986,0.123506 0.01008,-0.02437 0.02053,-0.04796 0.02842,-0.07441 l 0.244946,-0.880566 0.95498,-3.436483 c -0.05264,-0.0147 -0.106498,-0.02833 -0.157613,-0.04444 -0.210738,-0.06645 -0.40916,-0.144045 -0.593762,-0.234611 -0.05012,-0.02459 -0.0991,-0.05062 -0.147278,-0.077 z"
         style="fill:#9e00d4;stroke-linecap:square;paint-order:stroke fill markers;fill-opacity:1"
         id="path169" />
      <path
         d="m 84.255322,63.069535 c 0.105311,-0.371594 0.211106,-0.743865 0.316777,-1.115694 -0.105308,-0.05236 -0.214627,-0.06381 -0.327629,-0.03152 -0.1524,0.04233 -0.262482,0.122795 -0.330212,0.241328 -0.05927,0.110066 -0.05481,0.232987 0.01292,0.368453 0.0891,0.190935 0.198642,0.36989 0.328145,0.537435 z"
         style="font-size:12.7px;line-height:1.2;font-family:Comfortaa;-inkscape-font-specification:Comfortaa;font-variant-numeric:tabular-nums;letter-spacing:0px;display:inline;fill:#c082fe;stroke-width:0.264583;stroke-linecap:square;paint-order:stroke fill markers;fill-opacity:1"
         id="path170" />
      <path
         d="m 89.229696,64.02865 c -0.0022,-0.0084 -0.0052,-0.01626 -0.0072,-0.02481 -0.08607,-0.308057 -0.171378,-0.617256 -0.257349,-0.925525 -0.110459,0.07685 -0.231573,0.14481 -0.364319,0.203089 -0.347132,0.14393 -0.744993,0.216007 -1.193725,0.216007 -0.4064,0 -0.779095,-0.05085 -1.117761,-0.152445 -0.245721,-0.07986 -0.466317,-0.183045 -0.663009,-0.307475 l -0.22996,0.827856 v 0.0021 c -0.01118,0.03749 -0.02641,0.07167 -0.04134,0.105937 0.170082,0.0892 0.34983,0.168028 0.540535,0.235128 0.465667,0.1524 0.969669,0.22841 1.511536,0.22841 0.457199,-10e-7 0.884676,-0.06317 1.282609,-0.19017 0.192443,-0.06014 0.372256,-0.133255 0.540019,-0.218074 z"
         style="font-size:12.7px;line-height:1.2;font-family:Comfortaa;-inkscape-font-specification:Comfortaa;font-variant-numeric:tabular-nums;letter-spacing:0px;display:inline;fill:#c082fe;stroke-width:0.264583;stroke-linecap:square;paint-order:stroke fill markers;fill-opacity:1"
         id="path171" />
      <path
         d="m 86.832943,54.297461 c -0.396555,0.04584 -0.760391,0.139718 -1.089856,0.28422 -0.482553,0.203181 -0.86371,0.49547 -1.143083,0.876433 -0.270907,0.380963 -0.406177,0.829754 -0.406177,1.346171 0,0.05613 0.0023,0.111603 0.0057,0.166398 3.47e-4,0.0056 9.61e-4,0.01103 0.0015,0.01654 0.001,0.01604 0.0017,0.03218 0.0031,0.04806 0.0017,0.01902 0.0036,0.03799 0.0057,0.05684 l 0.0026,-0.0031 c 4.71e-4,0.0043 0.0011,0.0086 0.0016,0.01292 l -0.0031,5.17e-4 c 0.01676,0.146344 0.04688,0.287347 0.08888,0.423746 0.0016,0.0054 0.0035,0.01064 0.0052,0.01602 0.01238,0.03995 0.02559,0.07937 0.04031,0.118339 0.05315,0.140646 0.120731,0.275597 0.202055,0.405143 0.0042,0.0067 0.0086,0.01344 0.01292,0.02015 0.03866,0.06022 0.08025,0.119455 0.125057,0.17725 0.0049,0.0063 0.01006,0.01238 0.01499,0.0186 0.09689,0.122592 0.206933,0.239809 0.331763,0.3514 0.104661,0.09197 0.217649,0.177911 0.337447,0.256831 0.02056,0.01354 0.04203,0.02612 0.06305,0.03928 0.01971,0.01234 0.03932,0.0252 0.05943,0.03721 0.02765,0.0165 0.05791,0.03064 0.0863,0.04651 v 5.17e-4 c 0.04828,0.02698 0.09634,0.05394 0.146761,0.07906 0.183362,0.09137 0.380456,0.170841 0.592212,0.237712 0.05089,0.01607 0.104568,0.02979 0.157096,0.04444 0.05235,0.01461 0.103632,0.03021 0.157613,0.04341 0.227136,0.05554 0.467994,0.09908 0.723987,0.129707 0.101598,0.0127 0.200225,0.02751 0.295073,0.04444 0.129354,0.02309 0.250096,0.0512 0.366902,0.08217 0.06286,0.01666 0.125262,0.03377 0.184485,0.05271 0.06531,0.02089 0.128242,0.043 0.189136,0.06666 0.08222,0.03195 0.161483,0.06635 0.235644,0.103353 0.135594,0.06766 0.257726,0.143846 0.366386,0.22841 h 5.17e-4 c 0.05425,0.04226 0.104913,0.08685 0.152446,0.133325 h 5.16e-4 c 0.0061,0.006 0.01102,0.01257 0.01705,0.0186 0.01252,0.01252 0.02461,0.02503 0.03669,0.03772 0.01946,0.02044 0.0385,0.04115 0.05684,0.06201 0.0014,0.0016 0.0028,0.0031 0.0041,0.0047 0.01132,0.01291 0.02269,0.02569 0.03359,0.03876 0.05378,0.06189 0.106311,0.124424 0.158646,0.187069 0.121713,0.145689 0.23239,0.297593 0.297657,0.476457 0.0058,0.01583 0.01201,0.03128 0.01705,0.04754 h 0.0036 c 0.181289,0.636286 0.363123,1.272042 0.54467,1.907894 0.04564,-0.07734 0.08733,-0.157416 0.125057,-0.240812 0.169329,-0.355598 0.254248,-0.76185 0.254248,-1.219047 0,-0.155233 -0.01032,-0.304398 -0.02997,-0.448035 -0.0024,-0.01724 -0.0061,-0.03357 -0.0088,-0.05064 -0.01944,-0.125673 -0.04532,-0.247663 -0.0801,-0.364319 -0.0027,-0.009 -0.0055,-0.01792 -0.0083,-0.02687 -0.03899,-0.125735 -0.08716,-0.246112 -0.144177,-0.361219 -0.004,-0.0081 -0.0083,-0.0162 -0.0124,-0.02429 -0.02823,-0.05537 -0.05798,-0.109391 -0.09043,-0.162264 -0.0038,-0.0061 -0.0081,-0.01198 -0.01189,-0.01809 -0.03178,-0.05072 -0.06557,-0.10043 -0.101286,-0.148828 -0.004,-0.0055 -0.0078,-0.0111 -0.01189,-0.01654 -0.0373,-0.04965 -0.07685,-0.09803 -0.118339,-0.145211 -0.0078,-0.0089 -0.01582,-0.01757 -0.02377,-0.02636 -0.04263,-0.0471 -0.08696,-0.0934 -0.133842,-0.137976 -0.03175,-0.03122 -0.06429,-0.06161 -0.09819,-0.09147 -0.05331,-0.04697 -0.109832,-0.09178 -0.168465,-0.135392 -0.01591,-0.01184 -0.03176,-0.02407 -0.04806,-0.03566 -0.03808,-0.02707 -0.07761,-0.05386 -0.117822,-0.07958 -0.04034,-0.02579 -0.08154,-0.05101 -0.124024,-0.07545 -0.05118,-0.02943 -0.104354,-0.05729 -0.158647,-0.08475 -0.02108,-0.01066 -0.04253,-0.02116 -0.06408,-0.03152 -0.0151,-0.0073 -0.03014,-0.0151 -0.04548,-0.02222 -0.02783,-0.01292 -0.05668,-0.02477 -0.08527,-0.03721 v -5.17e-4 c -0.06117,-0.02661 -0.12655,-0.05051 -0.191202,-0.07493 -0.05733,-0.02165 -0.113571,-0.04467 -0.173633,-0.06459 -0.168069,-0.05574 -0.349999,-0.102466 -0.539502,-0.144694 -0.06013,-0.0134 -0.119092,-0.02775 -0.181385,-0.03979 -0.05792,-0.0112 -0.119011,-0.02047 -0.1788,-0.03049 -0.05839,-0.0098 -0.114497,-0.02079 -0.174666,-0.02946 -0.254172,-0.03631 -0.484944,-0.08096 -0.695565,-0.132808 -0.05405,-0.01331 -0.106954,-0.02701 -0.15813,-0.04134 -0.03986,-0.01116 -0.08074,-0.02232 -0.118856,-0.03411 -0.01299,-0.004 -0.02494,-0.0083 -0.03772,-0.0124 v -5.17e-4 c -0.04171,-0.01334 -0.08395,-0.02671 -0.123506,-0.04082 -0.103576,-0.03697 -0.20009,-0.0766 -0.288871,-0.118856 -0.04325,-0.02215 -0.08535,-0.04513 -0.125574,-0.06821 -0.01484,-0.0085 -0.02846,-0.01719 -0.04289,-0.02584 v -5.17e-4 c -0.05016,-0.03006 -0.09796,-0.0604 -0.143143,-0.09198 v -5.17e-4 c -0.04917,-0.03438 -0.09625,-0.06924 -0.139527,-0.10542 -0.06074,-0.05079 -0.116235,-0.10382 -0.165364,-0.15813 -0.02504,-0.0277 -0.04878,-0.05614 -0.0708,-0.08475 -0.02209,-0.02872 -0.04296,-0.0577 -0.06201,-0.08733 -0.0029,-0.0047 -0.0049,-0.0097 -0.0078,-0.01447 -0.02602,-0.04289 -0.0494,-0.08657 -0.0708,-0.130741 -0.0049,-0.01019 -0.0103,-0.02023 -0.01499,-0.03049 -0.02221,-0.04857 -0.04118,-0.0977 -0.05788,-0.147795 -0.0029,-0.0086 -0.0056,-0.01721 -0.0083,-0.02584 -0.0161,-0.05145 -0.02945,-0.103527 -0.03979,-0.156579 -0.0013,-0.0069 -0.0024,-0.01379 -0.0036,-0.02067 -0.0051,-0.02833 -0.01,-0.057 -0.01344,-0.08578 -0.0034,-0.02809 -0.0064,-0.05623 -0.0083,-0.08475 -0.0022,-0.03398 -0.0036,-0.06825 -0.0036,-0.102836 0,-0.541815 0.203422,-0.952594 0.609782,-1.231966 0.195913,-0.138772 0.423148,-0.242842 0.680062,-0.31471 0.02842,-0.09982 0.05687,-0.199917 0.08527,-0.299723 l 0.0021,-0.0036 v -0.0021 c 0.04809,-0.145297 0.08058,-0.35272 0.170016,-0.545186 0.02809,-0.06045 0.06699,-0.119168 0.114205,-0.173116 z"
         style="-inkscape-font-specification:Comfortaa;display:inline;fill:#c082fe;stroke-linecap:square;paint-order:stroke fill markers;fill-opacity:1"
         id="path172" />
      <path
         d="m 87.743481,54.278341 c 0.07271,0.07901 0.126534,0.175779 0.152963,0.282153 0.06979,0.242921 0.138563,0.48711 0.208256,0.730188 0.09367,0.02243 0.183892,0.04732 0.267167,0.07855 0.270933,0.1016 0.499996,0.241296 0.686263,0.419096 0.194733,0.169333 0.355141,0.351487 0.482141,0.54622 0.06773,0.118533 0.165489,0.198999 0.292489,0.241329 0.135466,0.04233 0.266774,0.03395 0.393774,-0.02532 0.11853,-0.06773 0.190091,-0.164972 0.215491,-0.291971 0.03387,-0.127 0.0087,-0.258309 -0.07596,-0.393775 -0.177803,-0.287871 -0.410802,-0.550487 -0.69867,-0.787553 -0.279399,-0.245533 -0.609638,-0.440528 -0.990637,-0.58446 -0.287069,-0.114828 -0.598143,-0.186148 -0.933277,-0.214457 z"
         style="font-size:12.7px;line-height:1.2;font-family:Comfortaa;-inkscape-font-specification:Comfortaa;font-variant-numeric:tabular-nums;letter-spacing:0px;display:inline;fill:#c082fe;stroke-width:0.264583;stroke-linecap:square;paint-order:stroke fill markers;fill-opacity:1"
         id="path173" />
    </g>
  </g>
</svg>
